<?xml version="1.0" encoding="utf-8"?>
<!-- Generator: Adobe Illustrator 16.0.0, SVG Export Plug-In . SVG Version: 6.00 Build 0)  -->
<!DOCTYPE svg PUBLIC "-//W3C//DTD SVG 1.1//EN" "http://www.w3.org/Graphics/SVG/1.1/DTD/svg11.dtd">
<svg version="1.1" id="Layer_1" xmlns="http://www.w3.org/2000/svg" xmlns:xlink="http://www.w3.org/1999/xlink" x="0px" y="0px"
	 width="1024px" height="1024px" viewBox="0 0 1024 1024" enable-background="new 0 0 1024 1024" xml:space="preserve">
<linearGradient id="SVGID_1_" gradientUnits="userSpaceOnUse" x1="158.0911" y1="323.8691" x2="594.7946" y2="576">
	<stop  offset="0" style="stop-color:#A94700"/>
	<stop  offset="0.2043" style="stop-color:#AC4B01"/>
	<stop  offset="0.3897" style="stop-color:#B45605"/>
	<stop  offset="0.568" style="stop-color:#C2680C"/>
	<stop  offset="0.7417" style="stop-color:#D68216"/>
	<stop  offset="0.9106" style="stop-color:#EFA322"/>
	<stop  offset="1" style="stop-color:#FFB82A"/>
</linearGradient>
<path fill="url(#SVGID_1_)" d="M300.15,284.3c-22.3,55.75-8.11,97.31-4.06,107.45c-25.84,28.38-41.55,64.87-41.55,108.97
	c0,155.08,94.26,190.049,184.48,200.19c-11.66,10.14-22.3,27.88-25.85,54.229c-23.31,10.641-81.6,27.87-118.09-33.449
	c-7.6-12.16-30.41-42.07-62.34-41.561c-33.95,0.51-13.68,19.26,0.51,26.86c17.23,9.63,37,45.62,41.56,57.27
	c8.11,22.811,34.46,66.4,136.33,47.641c0,33.96,0.51,65.89,0.51,75.52c0,10.64-7.6,22.8-27.88,19.26
	C222.61,852.96,106.54,701.42,106.54,522c0-224.01,181.45-405.45,405.46-405.45c40.17,0,80.37,6.33,117,17.2L544.01,271.6
	l117.49-1.02l-17.61,36.98c-9.029,5.02-18.859,11.06-29.51,18.3c-32.439-9.12-66.899-13.68-101.37-13.68
	c-34.46,0-68.92,4.56-101.36,13.68C334.11,273.66,300.15,284.3,300.15,284.3z"/>
<linearGradient id="SVGID_2_" gradientUnits="userSpaceOnUse" x1="586.5002" y1="581.9268" x2="917.4602" y2="581.9268">
	<stop  offset="0" style="stop-color:#FFB82A"/>
	<stop  offset="1" style="stop-color:#A94700"/>
</linearGradient>
<path fill="url(#SVGID_2_)" d="M917.46,522c0,178.91-116.07,330.96-276.22,384.68c-20.28,4.051-27.88-8.62-27.88-19.26
	c0-13.689,0.51-57.27,0.51-111.5c0-38.01-12.67-62.34-27.37-75.01c90.22-10.141,184.99-44.601,184.99-200.19
	c0-44.6-15.71-80.59-41.561-108.97c2.63-6.59,9.551-26.44,7.95-54.83l80.521-80.52C880.13,327.53,917.46,420.39,917.46,522z"/>
<linearGradient id="SVGID_3_" gradientUnits="userSpaceOnUse" x1="554.2209" y1="258.8594" x2="882.5295" y2="258.8594">
	<stop  offset="0" style="stop-color:#FFB82A"/>
	<stop  offset="1" style="stop-color:#A94700"/>
</linearGradient>
<polygon fill="url(#SVGID_3_)" points="722.495,18.333 882.53,17.719 770.168,176.49 877.732,176.49 554.221,500 684.118,255.918 
	567.167,256.937 "/>
</svg>
